HIERARCHY
ROOT hip
{
  OFFSET -101.206 71.7764 257.594
  CHANNELS 6 Xposition Yposition Zposition Zrotation Xrotation Yrotation
  JOINT abdomen
  {
    OFFSET 0 20.6881 -0.73152
    CHANNELS 3 Zrotation Xrotation Yrotation
    JOINT chest
    {
      OFFSET 0 11.7043 -0.48768
      CHANNELS 3 Zrotation Xrotation Yrotation
      JOINT neck
      {
        OFFSET 0 22.1894 -2.19456
        CHANNELS 3 Zrotation Xrotation Yrotation
        JOINT head
        {
          OFFSET -0.24384 7.07133 1.2192
          CHANNELS 3 Zrotation Xrotation Yrotation
          JOINT leftEye
          {
            OFFSET 4.14528 8.04674 8.04672
            CHANNELS 3 Zrotation Xrotation Yrotation
            End Site
            {
              OFFSET 1 0 0
            }
          }
          JOINT rightEye
          {
            OFFSET -3.6576 8.04674 8.04672
            CHANNELS 3 Zrotation Xrotation Yrotation
            End Site
            {
              OFFSET 1 0 0
            }
          }
        }
      }
      JOINT rCollar
      {
        OFFSET -2.68224 19.2634 -4.8768
        CHANNELS 3 Zrotation Xrotation Yrotation
        JOINT rShldr
        {
          OFFSET -8.77824 -1.95073 1.46304
          CHANNELS 3 Zrotation Xrotation Yrotation
          JOINT rForeArm
          {
            OFFSET -28.1742 -1.7115 0.48768
            CHANNELS 3 Zrotation Xrotation Yrotation
            JOINT rHand
            {
              OFFSET -22.5879 0.773209 7.07136
              CHANNELS 3 Zrotation Xrotation Yrotation
              JOINT rThumb1
              {
                OFFSET -1.2192 -0.487915 3.41376
                CHANNELS 3 Zrotation Xrotation Yrotation
                JOINT rThumb2
                {
                  OFFSET -3.37035 -0.52449 3.41376
                  CHANNELS 3 Zrotation Xrotation Yrotation
                  End Site
                  {
                    OFFSET -1.78271 -1.18214 1.43049
                  }
                }
              }
              JOINT rIndex1
              {
                OFFSET -7.75947 0.938293 5.60832
                CHANNELS 3 Zrotation Xrotation Yrotation
                JOINT rIndex2
                {
                  OFFSET -2.54057 -0.884171 1.56538
                  CHANNELS 3 Zrotation Xrotation Yrotation
                  End Site
                  {
                    OFFSET -1.62519 -0.234802 1.16502
                  }
                }
              }
              JOINT rMid1
              {
                OFFSET -8.24714 1.18213 3.41376
                CHANNELS 3 Zrotation Xrotation Yrotation
                JOINT rMid2
                {
                  OFFSET -3.10165 -0.590103 1.0647
                  CHANNELS 3 Zrotation Xrotation Yrotation
                  End Site
                  {
                    OFFSET -2.48547 -0.328903 0.83742
                  }
                }
              }
              JOINT rRing1
              {
                OFFSET -8.82822 0.546677 1.51678
                CHANNELS 3 Zrotation Xrotation Yrotation
                JOINT rRing2
                {
                  OFFSET -2.60934 -0.819778 -0.0198488
                  CHANNELS 3 Zrotation Xrotation Yrotation
                  End Site
                  {
                    OFFSET -2.33842 -0.294052 0.168128
                  }
                }
              }
              JOINT rPinky1
              {
                OFFSET -8.27202 -0.0477905 -0.4584
                CHANNELS 3 Zrotation Xrotation Yrotation
                JOINT rPinky2
                {
                  OFFSET -1.82734 -0.647385 -0.700984
                  CHANNELS 3 Zrotation Xrotation Yrotation
                  End Site
                  {
                    OFFSET -1.69225 -0.51767 -0.607171
                  }
                }
              }
            }
          }
        }
      }
      JOINT lCollar
      {
        OFFSET 2.68224 19.2634 -4.8768
        CHANNELS 3 Zrotation Xrotation Yrotation
        JOINT lShldr
        {
          OFFSET 8.77824 -1.95073 1.46304
          CHANNELS 3 Zrotation Xrotation Yrotation
          JOINT lForeArm
          {
            OFFSET 28.1742 -1.7115 0.48768
            CHANNELS 3 Zrotation Xrotation Yrotation
            JOINT lHand
            {
              OFFSET 22.5879 0.773209 7.07136
              CHANNELS 3 Zrotation Xrotation Yrotation
              JOINT lThumb1
              {
                OFFSET 1.2192 -0.487915 3.41376
                CHANNELS 3 Zrotation Xrotation Yrotation
                JOINT lThumb2
                {
                  OFFSET 3.37035 -0.52449 3.41376
                  CHANNELS 3 Zrotation Xrotation Yrotation
                  End Site
                  {
                    OFFSET 1.78271 -1.18214 1.43049
                  }
                }
              }
              JOINT lIndex1
              {
                OFFSET 7.75947 0.938293 5.60832
                CHANNELS 3 Zrotation Xrotation Yrotation
                JOINT lIndex2
                {
                  OFFSET 2.54057 -0.884171 1.56538
                  CHANNELS 3 Zrotation Xrotation Yrotation
                  End Site
                  {
                    OFFSET 1.62519 -0.234802 1.16502
                  }
                }
              }
              JOINT lMid1
              {
                OFFSET 8.24714 1.18213 3.41376
                CHANNELS 3 Zrotation Xrotation Yrotation
                JOINT lMid2
                {
                  OFFSET 3.10165 -0.590103 1.0647
                  CHANNELS 3 Zrotation Xrotation Yrotation
                  End Site
                  {
                    OFFSET 2.48547 -0.328903 0.83742
                  }
                }
              }
              JOINT lRing1
              {
                OFFSET 8.82822 0.546677 1.51678
                CHANNELS 3 Zrotation Xrotation Yrotation
                JOINT lRing2
                {
                  OFFSET 2.60934 -0.819778 -0.0198488
                  CHANNELS 3 Zrotation Xrotation Yrotation
                  End Site
                  {
                    OFFSET 2.33842 -0.294052 0.168128
                  }
                }
              }
              JOINT lPinky1
              {
                OFFSET 8.27202 -0.0477905 -0.4584
                CHANNELS 3 Zrotation Xrotation Yrotation
                JOINT lPinky2
                {
                  OFFSET 1.82734 -0.647385 -0.700984
                  CHANNELS 3 Zrotation Xrotation Yrotation
                  End Site
                  {
                    OFFSET 1.69225 -0.51767 -0.607171
                  }
                }
              }
            }
          }
        }
      }
    }
  }
  JOINT rButtock
  {
    OFFSET -8.77824 4.35084 1.2192
    CHANNELS 3 Zrotation Xrotation Yrotation
    JOINT rThigh
    {
      OFFSET 0 -1.70687 -2.19456
      CHANNELS 3 Zrotation Xrotation Yrotation
      JOINT rShin
      {
        OFFSET 0 -36.8199 0.73152
        CHANNELS 3 Zrotation Xrotation Yrotation
        JOINT rFoot
        {
          OFFSET 0.73152 -45.1104 -5.12064
          CHANNELS 3 Zrotation Xrotation Yrotation
          End Site
          {
            OFFSET -1.1221 -3.69964 12.103
          }
        }
      }
    }
  }
  JOINT lButtock
  {
    OFFSET 8.77824 4.35084 1.2192
    CHANNELS 3 Zrotation Xrotation Yrotation
    JOINT lThigh
    {
      OFFSET 0 -1.70687 -2.19456
      CHANNELS 3 Zrotation Xrotation Yrotation
      JOINT lShin
      {
        OFFSET 0 -36.8199 0.73152
        CHANNELS 3 Zrotation Xrotation Yrotation
        JOINT lFoot
        {
          OFFSET -0.73152 -45.1104 -5.12064
          CHANNELS 3 Zrotation Xrotation Yrotation
          End Site
          {
            OFFSET 1.1221 -3.69964 12.103
          }
        }
      }
    }
  }
}
MOTION
Frames:	5
Frame Time:	0.00833333
33.5843 65.1324 44.7227 8.02623 12.9582 -43.5208 9.28448 43.8553 -12.085 -4.11942 1.02459 -2.4349 1.34104 16.677 3.78549 5.21231 -59.1266 10.9414 -0 0 0 -0 0 0 -1.80313e-013 5.70033e-014 6.22879e-014 65.102 51.1675 5.64581 -27.9264 -30.1888 67.5434 -0.0294156 4.88885 0.688773 2.09829e-009 -1.45859e-009 -2.41372e-009 3.61767e-009 -2.51717e-009 -4.18e-009 2.09829e-009 -1.45859e-009 -2.41372e-009 7.73091 5.47488 0.417314 2.09829e-009 -1.45859e-009 -2.41371e-009 2.90554 0.965183 0.102902 2.09829e-009 -1.45859e-009 -2.41372e-009 10.2786 0.731801 0.0259123 2.09828e-009 -1.45859e-009 -2.41371e-009 2.22167 -0.733487 -0.20892 -1.80322e-013 5.70988e-014 6.21451e-014 -3.14661 17.7887 -71.9814 27.5861 -28.5429 -64.9283 3.23697 -44.4231 7.91697 -1.37841e-009 1.75786e-010 -6.77737e-010 -2.34735e-009 3.32315e-010 -1.22092e-009 -1.37842e-009 1.75788e-010 -6.77728e-010 -7.73091 5.47488 -0.417314 -1.37841e-009 1.7579e-010 -6.77762e-010 -2.90554 0.965183 -0.102902 -1.37842e-009 1.75787e-010 -6.77739e-010 -10.2786 0.731801 -0.0259123 -1.3784e-009 1.7579e-010 -6.77745e-010 -2.22167 -0.733487 0.20892 -2.03217e-016 0 -3.88251e-019 19.9447 -58.4841 13.361 -0.839261 57.2009 1.6121 -8.28746 -11.8054 -23.9465 2.03217e-016 0 3.88251e-019 33.2579 -56.5956 35.5057 177.121 55.7789 -177.913 -0.488816 -15.4393 -8.09759 
33.3182 64.9085 45.1009 7.77099 12.3981 -43.272 9.07169 44.9057 -12.0165 -4.05389 0.871408 -2.42811 1.32619 16.665 3.68111 5.2971 -59.4744 10.777 -0 0 0 -0 0 0 -1.35564e-013 -4.05698e-013 -2.1512e-013 64.0657 50.9074 7.08146 -28.0251 -30.7681 68.4764 -0.0272572 4.70439 0.662666 2.12084e-009 -1.08268e-009 -2.40507e-009 3.65974e-009 -1.86502e-009 -4.16326e-009 2.12085e-009 -1.08267e-009 -2.40508e-009 7.73091 5.47488 0.417314 2.12084e-009 -1.08268e-009 -2.40506e-009 2.90554 0.965183 0.102902 2.12085e-009 -1.08268e-009 -2.40507e-009 10.2786 0.731801 0.0259123 2.12083e-009 -1.08268e-009 -2.40506e-009 2.22167 -0.733487 -0.20892 -1.35581e-013 -4.05642e-013 -2.15303e-013 -2.84545 16.0547 -71.9616 27.5661 -28.4578 -64.793 3.35431 -45.0168 8.08381 -3.0513e-009 4.72804e-010 -1.60863e-009 -5.19561e-009 8.41617e-010 -2.87905e-009 -3.05131e-009 4.72807e-010 -1.60862e-009 -7.73091 5.47488 -0.417314 -3.0513e-009 4.72807e-010 -1.60864e-009 -2.90554 0.965183 -0.102902 -3.05131e-009 4.72805e-010 -1.60863e-009 -10.2786 0.731801 -0.0259123 -3.05129e-009 4.72809e-010 -1.60864e-009 -2.22167 -0.733487 0.20892 -2.03217e-016 0 -3.88251e-019 19.6809 -58.1512 13.3674 -0.874202 58.1737 1.72835 -8.7106 -12.3739 -24.5978 2.03217e-016 0 3.88251e-019 36.7847 -58.7368 38.868 177.181 54.3354 -177.936 -0.578543 -15.5228 -8.26428 
33.0548 64.6734 45.48 7.52901 11.8302 -43.04 8.83055 45.9828 -11.9378 -3.97151 0.697236 -2.42118 1.31291 16.6436 3.58414 5.39997 -59.8173 10.6388 -0 0 0 -0 0 0 -7.31655e-014 -6.77476e-013 -4.0065e-013 62.952 50.6443 8.57798 -28.1164 -31.3572 69.4202 -0.0249035 4.50028 0.63379 2.13273e-009 -9.80982e-010 -2.48458e-009 3.68261e-009 -1.68725e-009 -4.29979e-009 2.13274e-009 -9.80975e-010 -2.48459e-009 7.73091 5.47488 0.417314 2.13273e-009 -9.80981e-010 -2.48457e-009 2.90554 0.965183 0.102902 2.13274e-009 -9.80981e-010 -2.48458e-009 10.2786 0.731801 0.0259123 2.13273e-009 -9.80981e-010 -2.48457e-009 2.22167 -0.733487 -0.20892 -7.31947e-014 -6.7744e-013 -4.00849e-013 -2.59109 14.3151 -71.8862 27.544 -28.364 -64.6433 3.47058 -45.586 8.24727 -4.23324e-009 6.46683e-010 -2.04812e-009 -7.21536e-009 1.13494e-009 -3.67525e-009 -4.23324e-009 6.46686e-010 -2.0481e-009 -7.73091 5.47488 -0.417314 -4.23324e-009 6.46685e-010 -2.04811e-009 -2.90554 0.965183 -0.102902 -4.23324e-009 6.46684e-010 -2.04812e-009 -10.2786 0.731801 -0.0259123 -4.23323e-009 6.46687e-010 -2.04812e-009 -2.22167 -0.733487 0.20892 -2.03217e-016 0 -3.88251e-019 19.4276 -57.8269 13.3845 -0.915648 59.1614 1.84148 -9.13869 -12.9454 -25.2232 2.03217e-016 0 3.88251e-019 40.6211 -60.8956 42.5723 177.223 53.1195 -177.922 -0.627878 -15.4905 -8.3309 
32.7915 64.4265 45.8588 7.30286 11.2514 -42.8263 8.54593 47.1059 -11.8407 -3.86363 0.487725 -2.41328 1.29937 16.6099 3.49445 5.53191 -60.1577 10.5332 -0 0 0 -0 0 0 3.37734e-014 -6.59231e-013 -4.62991e-013 61.7615 50.3801 10.1298 -28.2006 -31.9678 70.3905 -0.0224102 4.27367 0.601749 2.25229e-009 -1.48011e-009 -2.9035e-009 3.89035e-009 -2.54772e-009 -5.02472e-009 2.2523e-009 -1.4801e-009 -2.90351e-009 7.73091 5.47488 0.417314 2.25229e-009 -1.48011e-009 -2.9035e-009 2.90554 0.965183 0.102902 2.2523e-009 -1.48011e-009 -2.9035e-009 10.2786 0.731801 0.0259123 2.25229e-009 -1.48011e-009 -2.90349e-009 2.22167 -0.733487 -0.20892 3.37225e-014 -6.59184e-013 -4.63161e-013 -2.37957 12.5368 -71.7751 27.5195 -28.2615 -64.4799 3.58387 -46.1241 8.40499 -4.92646e-009 6.56095e-010 -1.72894e-009 -8.41925e-009 1.13825e-009 -3.15071e-009 -4.92647e-009 6.56098e-010 -1.72892e-009 -7.73091 5.47488 -0.417314 -4.92646e-009 6.56096e-010 -1.72893e-009 -2.90554 0.965183 -0.102902 -4.92646e-009 6.56096e-010 -1.72894e-009 -10.2786 0.731801 -0.0259123 -4.92646e-009 6.56099e-010 -1.72894e-009 -2.22167 -0.733487 0.20892 -2.03217e-016 0 -3.88251e-019 19.1802 -57.5097 13.4142 -0.962147 60.1626 1.95031 -9.57152 -13.5244 -25.8178 2.03217e-016 0 3.88251e-019 44.9106 -63.094 46.8056 177.247 52.1291 -177.869 -0.629182 -15.3252 -8.2785 
32.5294 64.1672 46.2365 7.09184 10.6577 -42.6346 8.21506 48.269 -11.7209 -3.73822 0.250664 -2.40365 1.28568 16.5678 3.41025 5.68757 -60.5041 10.4539 -0 0 0 -0 0 0 1.76354e-013 -4.77817e-013 -4.61407e-013 60.5059 50.1058 11.7318 -28.2732 -32.596 71.3981 -0.019878 4.02393 0.566464 2.42826e-009 -2.34406e-009 -3.51862e-009 4.19506e-009 -4.03854e-009 -6.08977e-009 2.42826e-009 -2.34405e-009 -3.51863e-009 7.73091 5.47488 0.417314 2.42826e-009 -2.34406e-009 -3.51862e-009 2.90554 0.965183 0.102902 2.42827e-009 -2.34406e-009 -3.51862e-009 10.2786 0.731801 0.0259123 2.42826e-009 -2.34406e-009 -3.51861e-009 2.22167 -0.733487 -0.20892 1.76274e-013 -4.77742e-013 -4.61522e-013 -2.2021 10.7215 -71.674 27.4927 -28.1508 -64.3046 3.69435 -46.6353 8.55762 -5.37352e-009 5.74304e-010 -9.54291e-010 -9.21472e-009 9.79336e-010 -1.83488e-009 -5.37352e-009 5.74307e-010 -9.54284e-010 -7.73091 5.47488 -0.417314 -5.37352e-009 5.74305e-010 -9.54284e-010 -2.90554 0.965183 -0.102902 -5.37352e-009 5.74305e-010 -9.54291e-010 -10.2786 0.731801 -0.0259123 -5.37352e-009 5.74306e-010 -9.54299e-010 -2.22167 -0.733487 0.20892 -2.03217e-016 0 -3.88251e-019 18.9341 -57.1946 13.4525 -1.01324 61.1781 2.05689 -10.0103 -14.1104 -26.3876 2.03217e-016 0 3.88251e-019 49.8789 -65.2717 51.8015 177.259 51.357 -177.784 -0.593253 -15.0321 -8.14404 
